<svg width="197" height="95" viewBox="0 0 197 95" fill="none" xmlns="http://www.w3.org/2000/svg">
<path fill-rule="evenodd" clip-rule="evenodd" d="M151.67 0.608624C153.267 1.69762 153.679 3.87509 152.59 5.47214L151.207 7.50046L174.501 7.50046C182.785 7.50046 189.501 14.2162 189.501 22.5005V47.0145L194.736 50.1504C196.394 51.1437 196.933 53.2932 195.94 54.9515C194.947 56.6097 192.797 57.1488 191.139 56.1555L189.501 55.1743V72.5005C189.501 80.7847 182.785 87.5005 174.501 87.5005H153.533L154.244 89.0615C155.045 90.8208 154.268 92.8962 152.509 93.6971C150.749 94.498 148.674 93.7211 147.873 91.9619L145.842 87.5005L21.5008 87.5005C19.3385 87.5005 17.2831 87.0429 15.4261 86.2194L11.8191 89.4089C10.371 90.6894 8.15909 90.5535 6.87863 89.1055C5.59817 87.6574 5.73404 85.4455 7.18211 84.165L9.7827 81.8654C7.72894 79.299 6.50079 76.0431 6.50079 72.5005L6.50079 26.8627L1.96365 24.6447C0.227047 23.7958 -0.492541 21.6998 0.356401 19.9632C1.20534 18.2266 3.30134 17.507 5.03794 18.3559L6.85518 19.2443C8.34229 12.5256 14.3347 7.50046 21.5008 7.50046L57.7075 7.50046L66.1897 2.48725C67.8538 1.50373 70.0001 2.05544 70.9836 3.71952C71.7028 4.93639 71.6011 6.41111 70.8438 7.50046L142.734 7.50046L146.806 1.52854C147.895 -0.0685092 150.073 -0.48037 151.67 0.608624Z" fill="#FED119"/>
<path d="M25.501 31.2939L34.8517 25.5004" stroke="#FEB019" stroke-width="7" stroke-linecap="round"/>
<path d="M57.501 57.9902L60.8132 47.5008" stroke="#FEB019" stroke-width="7" stroke-linecap="round"/>
<path d="M35.501 66.5005L43.2146 74.3427" stroke="#FEB019" stroke-width="7" stroke-linecap="round"/>
<path d="M94.501 21.5005L98.5343 31.7344" stroke="#FEB019" stroke-width="7" stroke-linecap="round"/>
<path d="M82.501 70.0435L93.4876 69.5005" stroke="#FEB019" stroke-width="7" stroke-linecap="round"/>
<path d="M128.963 64.5005L128.501 75.4908" stroke="#FEB019" stroke-width="7" stroke-linecap="round"/>
<path d="M133.501 37.5005L142.636 43.6283" stroke="#FEB019" stroke-width="7" stroke-linecap="round"/>
<path d="M168.595 20.5005L163.501 30.2501" stroke="#FEB019" stroke-width="7" stroke-linecap="round"/>
<path d="M172.412 64.5005L163.501 70.9494" stroke="#FEB019" stroke-width="7" stroke-linecap="round"/>
</svg>
