<svg width="190" height="64" viewBox="0 0 190 64" fill="none" xmlns="http://www.w3.org/2000/svg">
<path fill-rule="evenodd" clip-rule="evenodd" d="M175 29H15C15 44.464 27.536 57 43 57H53.9138C55.6652 61.1149 59.7457 64 64.5 64C69.2543 64 73.3348 61.1149 75.0862 57H147C162.464 57 175 44.464 175 29Z" fill="#C3664E"/>
<path fill-rule="evenodd" clip-rule="evenodd" d="M14.5 0C6.49187 0 0 6.49187 0 14.5C0 22.5081 6.49187 29 14.5 29H133V32.5C133 39.4036 138.596 45 145.5 45C152.404 45 158 39.4036 158 32.5V29H175.5C183.508 29 190 22.5081 190 14.5C190 6.49187 183.508 0 175.5 0H14.5Z" fill="#00D98B"/>
</svg>
