<svg width="278" height="74" viewBox="0 0 278 74" fill="none" xmlns="http://www.w3.org/2000/svg">
<path fill-rule="evenodd" clip-rule="evenodd" d="M182.529 23.9999H252.438C266.245 23.9999 277.438 35.1928 277.438 48.9999C277.438 62.807 266.245 73.9999 252.438 73.9999H25.438C11.6309 73.9999 0.437988 62.807 0.437988 48.9999C0.437988 35.1928 11.6309 23.9999 25.438 23.9999H156.303L166.243 5.94826C169.303 0.39117 176.288 -1.63324 181.845 1.42662C187.402 4.48648 189.427 11.4719 186.367 17.029L182.529 23.9999Z" fill="#C3664E"/>
<rect x="23.438" y="30.8862" width="18" height="8" rx="4" fill="#AC5541"/>
<rect x="48.438" y="30.8862" width="68" height="8" rx="4" fill="#AC5541"/>
<rect x="183.438" y="59" width="42" height="8" rx="4" fill="#AC5541"/>
<circle cx="252.438" cy="49" r="19" fill="#EC9A5C"/>
<circle cx="252.438" cy="49" r="8" fill="#C3664E"/>
</svg>
