<svg width="1920" height="1080" viewBox="0 0 1920 1080" fill="none" xmlns="http://www.w3.org/2000/svg">
<g clip-path="url(#clip0_188_2569)">
<rect width="1920" height="1080" fill="#A0EDFD"/>
<path fill-rule="evenodd" clip-rule="evenodd" d="M666.822 175.897C658.504 140.972 627.099 115 589.629 115C552.158 115 520.753 140.972 512.435 175.897H501.051C468.438 175.897 442 202.335 442 234.948C442 267.562 468.438 294 501.051 294H676.361C708.974 294 735.412 267.562 735.412 234.948C735.412 202.335 708.974 175.897 676.361 175.897H666.822Z" fill="white" fill-opacity="0.3"/>
<path fill-rule="evenodd" clip-rule="evenodd" d="M1423.69 475.835C1420.29 461.592 1407.49 451 1392.21 451C1376.92 451 1364.12 461.592 1360.72 475.835H1356.08C1342.78 475.835 1332 486.617 1332 499.918C1332 513.218 1342.78 524 1356.08 524H1427.58C1440.88 524 1451.66 513.218 1451.66 499.918C1451.66 486.617 1440.88 475.835 1427.58 475.835H1423.69Z" fill="white" fill-opacity="0.3"/>
<path fill-rule="evenodd" clip-rule="evenodd" d="M1170.59 899.897C1178.91 864.972 1210.31 839 1247.78 839C1285.25 839 1316.66 864.972 1324.98 899.897H1336.36C1368.97 899.897 1395.41 926.335 1395.41 958.948C1395.41 991.562 1368.97 1018 1336.36 1018H1161.05C1128.44 1018 1102 991.562 1102 958.948C1102 926.335 1128.44 899.897 1161.05 899.897H1170.59Z" fill="white" fill-opacity="0.3"/>
<path fill-rule="evenodd" clip-rule="evenodd" d="M677.972 680.835C681.365 666.592 694.172 656 709.453 656C724.735 656 737.542 666.592 740.935 680.835H745.577C758.878 680.835 769.66 691.617 769.66 704.918C769.66 718.218 758.878 729 745.577 729H674.082C660.782 729 650 718.218 650 704.918C650 691.617 660.782 680.835 674.082 680.835H677.972Z" fill="white" fill-opacity="0.3"/>
<path d="M1858.75 689L1892.25 722.5" stroke="#49E0FE" stroke-width="20" stroke-linecap="round"/>
<path d="M1707.75 212V271C1707.75 287.569 1721.18 301 1737.75 301H1824.75" stroke="#49E0FE" stroke-width="20" stroke-linecap="round"/>
<path d="M1804.75 474V537C1804.75 553.569 1818.18 567 1834.75 567H1892.75" stroke="#49E0FE" stroke-width="20" stroke-linecap="round"/>
<rect width="60" height="1696" transform="matrix(1 0 0 -1 1875.75 1696)" fill="#49E0FE"/>
<path fill-rule="evenodd" clip-rule="evenodd" d="M1743.42 206.553H1746.78C1760.98 206.553 1772.5 218.07 1772.5 232.276C1772.5 246.483 1760.98 258 1746.78 258H1670.72C1656.52 258 1645 246.483 1645 232.276C1645 218.07 1656.52 206.553 1670.72 206.553H1675.2C1675.5 187.971 1690.66 173 1709.31 173C1727.96 173 1743.12 187.971 1743.42 206.553Z" fill="#79E8FE"/>
<path fill-rule="evenodd" clip-rule="evenodd" d="M1987.62 965.678H1997.59C2033.3 965.678 2062.25 994.628 2062.25 1030.34C2062.25 1066.05 2033.3 1095 1997.59 1095H1806.41C1770.7 1095 1741.75 1066.05 1741.75 1030.34C1741.75 994.628 1770.7 965.678 1806.41 965.678H1816.55C1819.67 921.154 1856.77 886 1902.09 886C1947.4 886 1984.51 921.154 1987.62 965.678Z" fill="#79E8FE"/>
<path fill-rule="evenodd" clip-rule="evenodd" d="M2034.32 321.139H2049.72C2104.91 321.139 2149.65 365.88 2149.65 421.07C2149.65 476.26 2104.91 521 2049.72 521H1754.28C1699.09 521 1654.35 476.26 1654.35 421.07C1654.35 365.88 1699.09 321.139 1754.28 321.139H1769.94C1774.76 252.328 1832.1 198 1902.13 198C1972.17 198 2029.51 252.328 2034.32 321.139Z" fill="#79E8FE"/>
<path d="M76.25 316L42.75 349.5" stroke="#49E0FE" stroke-width="20" stroke-linecap="round"/>
<path d="M76.25 440L42.75 473.5" stroke="#49E0FE" stroke-width="20" stroke-linecap="round"/>
<path d="M76.25 1066L42.75 1099.5" stroke="#49E0FE" stroke-width="20" stroke-linecap="round"/>
<path d="M159.25 89V152C159.25 168.569 145.819 182 129.25 182H41.75" stroke="#49E0FE" stroke-width="20" stroke-linecap="round"/>
<rect width="60" height="1696" transform="matrix(-1 0 0 1 59.25 0)" fill="#49E0FE"/>
<path fill-rule="evenodd" clip-rule="evenodd" d="M127.254 80H124.25C111.547 80 101.25 90.2975 101.25 103C101.25 115.703 111.547 126 124.25 126H192.25C204.953 126 215.25 115.703 215.25 103C215.25 90.2975 204.953 80 192.25 80H188.246C187.979 63.3859 174.428 50 157.75 50C141.072 50 127.521 63.3859 127.254 80Z" fill="#79E8FE"/>
<path fill-rule="evenodd" clip-rule="evenodd" d="M-52.6216 680.678H-62.5856C-98.2968 680.678 -127.246 709.628 -127.246 745.339C-127.246 781.05 -98.2969 810 -62.5857 810H128.585C164.296 810 193.246 781.05 193.246 745.339C193.246 709.628 164.296 680.678 128.585 680.678H118.447C115.335 636.154 78.2291 601 32.9129 601C-12.4033 601 -49.509 636.154 -52.6216 680.678Z" fill="#79E8FE"/>
</g>
<defs>
<clipPath id="clip0_188_2569">
<rect width="1920" height="1080" fill="white"/>
</clipPath>
</defs>
</svg>
