<svg width="952" height="1600" viewBox="0 0 952 1600" fill="none" xmlns="http://www.w3.org/2000/svg">
<g clip-path="url(#clip0_188_2511)">
<rect width="952" height="1600" fill="#A0EDFD"/>
<path fill-rule="evenodd" clip-rule="evenodd" d="M428.821 287.897C420.503 252.972 389.098 227 351.628 227C314.157 227 282.752 252.972 274.434 287.897H263.05C230.437 287.897 203.999 314.335 203.999 346.948C203.999 379.562 230.437 406 263.05 406H438.36C470.973 406 497.411 379.562 497.411 346.948C497.411 314.335 470.973 287.897 438.36 287.897H428.821Z" fill="white" fill-opacity="0.3"/>
<path fill-rule="evenodd" clip-rule="evenodd" d="M713.686 677.835C710.294 663.592 697.486 653 682.205 653C666.923 653 654.116 663.592 650.724 677.835H646.081C632.78 677.835 621.998 688.617 621.998 701.918C621.998 715.218 632.78 726 646.081 726H717.576C730.876 726 741.658 715.218 741.658 701.918C741.658 688.617 730.876 677.835 717.576 677.835H713.686Z" fill="white" fill-opacity="0.3"/>
<path fill-rule="evenodd" clip-rule="evenodd" d="M522.588 1351.9C530.907 1316.97 562.311 1291 599.782 1291C637.253 1291 668.657 1316.97 676.976 1351.9H688.359C720.973 1351.9 747.411 1378.34 747.411 1410.95C747.411 1443.56 720.973 1470 688.359 1470H513.05C480.437 1470 453.999 1443.56 453.999 1410.95C453.999 1378.34 480.437 1351.9 513.05 1351.9H522.588Z" fill="white" fill-opacity="0.3"/>
<path fill-rule="evenodd" clip-rule="evenodd" d="M269.971 942.835C273.363 928.592 286.171 918 301.452 918C316.733 918 329.541 928.592 332.933 942.835H337.576C350.876 942.835 361.658 953.617 361.658 966.918C361.658 980.218 350.876 991 337.576 991H266.081C252.781 991 241.999 980.218 241.999 966.918C241.999 953.617 252.781 942.835 266.081 942.835H269.971Z" fill="white" fill-opacity="0.3"/>
<path d="M875.75 1222.5L909.25 1256" stroke="#49E0FE" stroke-width="20" stroke-linecap="round"/>
<path d="M875.75 1346.5L909.25 1380" stroke="#49E0FE" stroke-width="20" stroke-linecap="round"/>
<path d="M875.75 689L909.25 722.5" stroke="#49E0FE" stroke-width="20" stroke-linecap="round"/>
<path d="M792.75 1496V1559C792.75 1575.57 806.181 1589 822.75 1589H910.25" stroke="#49E0FE" stroke-width="20" stroke-linecap="round"/>
<path d="M724.75 212V271C724.75 287.569 738.181 301 754.75 301H841.75" stroke="#49E0FE" stroke-width="20" stroke-linecap="round"/>
<path d="M821.75 474V537C821.75 553.569 835.181 567 851.75 567H909.75" stroke="#49E0FE" stroke-width="20" stroke-linecap="round"/>
<rect width="60" height="1696" transform="matrix(1 0 0 -1 892.75 1696)" fill="#49E0FE"/>
<path fill-rule="evenodd" clip-rule="evenodd" d="M824.746 1487H827.75C840.453 1487 850.75 1497.3 850.75 1510C850.75 1522.7 840.453 1533 827.75 1533H759.75C747.047 1533 736.75 1522.7 736.75 1510C736.75 1497.3 747.047 1487 759.75 1487H763.754C764.021 1470.39 777.572 1457 794.25 1457C810.928 1457 824.479 1470.39 824.746 1487Z" fill="#79E8FE"/>
<path fill-rule="evenodd" clip-rule="evenodd" d="M760.417 206.553H763.776C777.983 206.553 789.5 218.07 789.5 232.276C789.5 246.483 777.983 258 763.776 258H687.724C673.517 258 662 246.483 662 232.276C662 218.07 673.517 206.553 687.724 206.553H692.202C692.501 187.971 707.657 173 726.309 173C744.962 173 760.118 187.971 760.417 206.553Z" fill="#79E8FE"/>
<path fill-rule="evenodd" clip-rule="evenodd" d="M1004.62 965.678H1014.59C1050.3 965.678 1079.25 994.628 1079.25 1030.34C1079.25 1066.05 1050.3 1095 1014.59 1095H823.415C787.704 1095 758.754 1066.05 758.754 1030.34C758.754 994.628 787.704 965.678 823.415 965.678H833.553C836.665 921.154 873.771 886 919.087 886C964.403 886 1001.51 921.154 1004.62 965.678Z" fill="#79E8FE"/>
<path fill-rule="evenodd" clip-rule="evenodd" d="M1051.32 321.139H1066.72C1121.91 321.139 1166.65 365.88 1166.65 421.07C1166.65 476.26 1121.91 521 1066.72 521H771.277C716.087 521 671.347 476.26 671.347 421.07C671.347 365.88 716.087 321.139 771.277 321.139H786.945C791.755 252.328 849.1 198 919.134 198C989.168 198 1046.51 252.328 1051.32 321.139Z" fill="#79E8FE"/>
<path d="M76.25 316L42.75 349.5" stroke="#49E0FE" stroke-width="20" stroke-linecap="round"/>
<path d="M76.25 440L42.75 473.5" stroke="#49E0FE" stroke-width="20" stroke-linecap="round"/>
<path d="M76.25 1066L42.75 1099.5" stroke="#49E0FE" stroke-width="20" stroke-linecap="round"/>
<path d="M159.25 89V152C159.25 168.569 145.819 182 129.25 182H41.75" stroke="#49E0FE" stroke-width="20" stroke-linecap="round"/>
<path d="M227.25 1168V1227C227.25 1243.57 213.819 1257 197.25 1257H110.25" stroke="#49E0FE" stroke-width="20" stroke-linecap="round"/>
<path d="M130.25 1430V1493C130.25 1509.57 116.819 1523 100.25 1523H42.25" stroke="#49E0FE" stroke-width="20" stroke-linecap="round"/>
<rect width="60" height="1696" transform="matrix(-1 0 0 1 59.25 0)" fill="#49E0FE"/>
<path fill-rule="evenodd" clip-rule="evenodd" d="M127.254 80H124.25C111.547 80 101.25 90.2975 101.25 103C101.25 115.703 111.547 126 124.25 126H192.25C204.953 126 215.25 115.703 215.25 103C215.25 90.2975 204.953 80 192.25 80H188.246C187.979 63.3859 174.428 50 157.75 50C141.072 50 127.521 63.3859 127.254 80Z" fill="#79E8FE"/>
<path fill-rule="evenodd" clip-rule="evenodd" d="M191.583 1162.55H188.224C174.017 1162.55 162.5 1174.07 162.5 1188.28C162.5 1202.48 174.017 1214 188.224 1214H264.276C278.483 1214 290 1202.48 290 1188.28C290 1174.07 278.483 1162.55 264.276 1162.55H259.798C259.499 1143.97 244.343 1129 225.691 1129C207.038 1129 191.882 1143.97 191.583 1162.55Z" fill="#79E8FE"/>
<path fill-rule="evenodd" clip-rule="evenodd" d="M-52.6216 680.678H-62.5856C-98.2968 680.678 -127.246 709.628 -127.246 745.339C-127.246 781.05 -98.2969 810 -62.5857 810H128.585C164.296 810 193.246 781.05 193.246 745.339C193.246 709.628 164.296 680.678 128.585 680.678H118.447C115.335 636.154 78.2291 601 32.9129 601C-12.4033 601 -49.509 636.154 -52.6216 680.678Z" fill="#79E8FE"/>
<path fill-rule="evenodd" clip-rule="evenodd" d="M-99.3239 1277.14H-114.723C-169.913 1277.14 -214.653 1321.88 -214.653 1377.07C-214.653 1432.26 -169.913 1477 -114.723 1477H180.723C235.913 1477 280.653 1432.26 280.653 1377.07C280.653 1321.88 235.913 1277.14 180.723 1277.14H165.055C160.245 1208.33 102.9 1154 32.8657 1154C-37.1685 1154 -94.5135 1208.33 -99.3239 1277.14Z" fill="#79E8FE"/>
</g>
<defs>
<clipPath id="clip0_188_2511">
<rect width="952" height="1600" fill="white"/>
</clipPath>
</defs>
</svg>
