<svg width="200" height="194" viewBox="0 0 200 194" fill="none" xmlns="http://www.w3.org/2000/svg">
<path d="M34.5 44.5L100 24L164 44.5L183 109V194H17V109L34.5 44.5Z" fill="#FF5165"/>
<mask id="mask0_188_1970" style="mask-type:alpha" maskUnits="userSpaceOnUse" x="17" y="24" width="166" height="170">
<path d="M34.5 44.5L100 24L164 44.5L183 109V194H17V109L34.5 44.5Z" fill="#FF5165"/>
</mask>
<g mask="url(#mask0_188_1970)">
<rect x="35" y="31" width="8" height="148" fill="#F14357"/>
<rect x="76" y="31" width="8" height="148" fill="#F14357"/>
<rect x="117" y="31" width="8" height="148" fill="#F14357"/>
<rect x="158" y="31" width="8" height="148" fill="#F14357"/>
</g>
<path d="M197.447 113.735L171.883 45.9897C170.665 42.7622 168.372 40.0531 165.39 38.3189L107.041 4.38549C102.379 1.6744 96.6209 1.6744 91.9591 4.38549L33.6911 38.2718C30.6598 40.0347 28.3493 42.7837 27.1476 46.078L2.44661 113.793C1.2568 117.055 3.67421 120.5 7.14617 120.5H19.4954C21.5992 120.5 23.4779 119.183 24.1955 117.206L43.6677 63.5491C44.8524 60.2845 47.1332 57.5322 50.1209 55.7617L91.8881 31.0108C96.5846 28.2276 102.422 28.2159 107.13 30.98L149.391 55.7935C152.372 57.5439 154.657 60.2703 155.859 63.5115L175.79 117.239C176.517 119.199 178.387 120.5 180.478 120.5H192.769C196.264 120.5 198.681 117.005 197.447 113.735Z" fill="white"/>
<path d="M14 182C14 180.343 15.3431 179 17 179H56V194H17C15.3431 194 14 192.657 14 191V182Z" fill="white"/>
<path d="M189 191C189 192.657 187.657 194 186 194L147 194L147 179L186 179C187.657 179 189 180.343 189 182L189 191Z" fill="white"/>
<circle cx="100.5" cy="66.5" r="18.5" fill="white"/>
<circle cx="100.5" cy="66.5" r="10.5" fill="#F14357"/>
<path d="M56 111C56 106.582 59.5817 103 64 103H139C143.418 103 147 106.582 147 111V194H56V111Z" fill="white"/>
<rect x="71" y="118" width="61" height="61" fill="#F14357"/>
<rect x="141.404" y="116.077" width="102.287" height="10.5814" transform="rotate(135 141.404 116.077)" fill="white"/>
<rect x="133.923" y="188.405" width="102.287" height="10.5814" transform="rotate(-135 133.923 188.405)" fill="white"/>
</svg>
