<svg width="30" height="56" viewBox="0 0 30 56" fill="none" xmlns="http://www.w3.org/2000/svg">
<path fill-rule="evenodd" clip-rule="evenodd" d="M17 18H12V38.5147L10.2426 36.7574C7.89949 34.4142 4.1005 34.4142 1.75736 36.7574C-0.585786 39.1005 -0.585786 42.8995 1.75736 45.2427L10.2426 53.7279C11.4143 54.8996 12.9499 55.4853 14.4855 55.4853C14.8459 55.4853 15.2062 55.453 15.5619 55.3885C16.7217 55.1781 17.8315 54.6245 18.7281 53.7279L27.2134 45.2426C29.5566 42.8995 29.5566 39.1005 27.2134 36.7574C24.8703 34.4142 21.0713 34.4142 18.7281 36.7574L17 38.4855V18Z" fill="#49E0FE"/>
<path fill-rule="evenodd" clip-rule="evenodd" d="M2.23164 14.6567C-0.854606 11.2012 -0.739173 5.89479 2.57793 2.57769C5.89504 -0.739415 11.2014 -0.854842 14.657 2.23141C18.1125 -0.855018 23.419 -0.739646 26.7362 2.57752C30.0533 5.89468 30.1687 11.2012 27.0823 14.6567C30.1691 18.1122 30.0539 23.4191 26.7366 26.7364C23.4193 30.0537 18.1125 30.1689 14.657 27.0821C11.2014 30.1687 5.89476 30.0534 2.57752 26.7362C-0.739728 23.4189 -0.855023 18.1122 2.23164 14.6567Z" fill="#79E8FE"/>
<circle cx="15" cy="15" r="7" fill="#49E0FE"/>
</svg>
