<svg width="435" height="145" viewBox="0 0 435 145" fill="none" xmlns="http://www.w3.org/2000/svg">
<path d="M0 29H145V145H0V29Z" fill="#C3664E"/>
<path d="M0 0H145V29H0V0Z" fill="#00D98B"/>
<path d="M113 68.5C113 75.4035 107.18 81 100 81C92.8203 81 87 75.4035 87 68.5C87 61.5964 92.8203 56 100 56C107.18 56 113 61.5964 113 68.5Z" fill="#AC5541"/>
<circle cx="39" cy="98" r="8" fill="#AC5541"/>
<path d="M145 29H290V145H145V29Z" fill="#C3664E"/>
<path fill-rule="evenodd" clip-rule="evenodd" d="M290 0H145V29H172V29.5C172 35.8513 177.149 41 183.5 41C189.851 41 195 35.8513 195 29.5V29H290V0Z" fill="#00D98B"/>
<path d="M290 29H435V145H290V29Z" fill="#C3664E"/>
<path fill-rule="evenodd" clip-rule="evenodd" d="M290 0H435V29H418V30.5C418 38.5081 411.508 45 403.5 45C395.492 45 389 38.5081 389 30.5V29H360V29.5C360 35.8513 354.851 41 348.5 41C342.149 41 337 35.8513 337 29.5V29H290V0Z" fill="#00D98B"/>
<path d="M348 79.5C348 86.4035 342.18 92 335 92C327.82 92 322 86.4035 322 79.5C322 72.5964 327.82 67 335 67C342.18 67 348 72.5964 348 79.5Z" fill="#AC5541"/>
</svg>
