<svg width="145" height="145" viewBox="0 0 145 145" fill="none" xmlns="http://www.w3.org/2000/svg">
<path d="M0 29H145V145H0V29Z" fill="#C3664E"/>
<path fill-rule="evenodd" clip-rule="evenodd" d="M0 0H145V29H128V30.5C128 38.5081 121.508 45 113.5 45C105.492 45 99 38.5081 99 30.5V29H70V29.5C70 35.8513 64.8513 41 58.5 41C52.1487 41 47 35.8513 47 29.5V29H0V0Z" fill="#00D98B"/>
<path d="M58 79.5C58 86.4035 52.1797 92 45 92C37.8203 92 32 86.4035 32 79.5C32 72.5964 37.8203 67 45 67C52.1797 67 58 72.5964 58 79.5Z" fill="#AC5541"/>
</svg>
