<svg width="254" height="15" viewBox="0 0 254 15" fill="none" xmlns="http://www.w3.org/2000/svg">
<rect width="254" height="15" fill="#FFBF9A"/>
<path d="M25.3193 0L14.8193 15L5.84721e-05 15L10.5001 -6.47771e-07L25.3193 0Z" fill="#FFB48A"/>
<path d="M110.277 0L99.7773 15L84.9581 15L95.4581 -6.47771e-07L110.277 0Z" fill="#FFB48A"/>
<path d="M195.235 0L184.735 15L169.916 15L180.416 -6.47771e-07L195.235 0Z" fill="#FFB48A"/>
<path d="M53.6387 0L43.1387 15L28.3194 15L38.8194 -6.47771e-07L53.6387 0Z" fill="#FFB48A"/>
<path d="M138.597 0L128.097 15L113.277 15L123.777 -6.47771e-07L138.597 0Z" fill="#FFB48A"/>
<path d="M223.555 0L213.055 15L198.235 15L208.735 -6.47771e-07L223.555 0Z" fill="#FFB48A"/>
<path d="M81.958 0L71.458 15L56.6387 15L67.1387 -6.47771e-07L81.958 0Z" fill="#FFB48A"/>
<path d="M166.916 0L156.416 15L141.597 15L152.097 -6.47771e-07L166.916 0Z" fill="#FFB48A"/>
<path d="M251.874 0L241.374 15L226.555 15L237.055 -6.47771e-07L251.874 0Z" fill="#FFB48A"/>
</svg>
