<svg width="37" height="27" viewBox="0 0 37 27" fill="none" xmlns="http://www.w3.org/2000/svg">
<path d="M8 27H4C1.79086 27 0 25.2091 0 23C0 20.7909 1.79086 19 4 19H7.05882C7.57862 19 8 18.5786 8 18.0588V11C8 4.92487 12.9249 0 19 0C25.0751 0 30 4.92487 30 11V17.8333C30 18.4777 30.5223 19 31.1667 19H33C35.2091 19 37 20.7909 37 23C37 25.2091 35.2091 27 33 27H29.5C25.3579 27 22 23.6421 22 19.5V11C22 9.34315 20.6569 8 19 8C17.3431 8 16 9.34315 16 11V19C16 23.4183 12.4183 27 8 27Z" fill="#FFA8DC"/>
<mask id="mask0_188_1966" style="mask-type:alpha" maskUnits="userSpaceOnUse" x="0" y="0" width="37" height="27">
<path d="M8 27H4C1.79086 27 0 25.2091 0 23C0 20.7909 1.79086 19 4 19H7.05882C7.57862 19 8 18.5786 8 18.0588V11C8 4.92487 12.9249 0 19 0C25.0751 0 30 4.92487 30 11V17.8333C30 18.4777 30.5223 19 31.1667 19H33C35.2091 19 37 20.7909 37 23C37 25.2091 35.2091 27 33 27H29.5C25.3579 27 22 23.6421 22 19.5V11C22 9.34315 20.6569 8 19 8C17.3431 8 16 9.34315 16 11V19C16 23.4183 12.4183 27 8 27Z" fill="#D9D9D9"/>
</mask>
<g mask="url(#mask0_188_1966)">
<rect x="18" y="-2" width="2" height="13" fill="#FF98D6"/>
<rect x="30.2583" y="5" width="2" height="13" transform="rotate(60 30.2583 5)" fill="#FF98D6"/>
<rect width="2" height="13" transform="matrix(-0.5 0.866025 0.866025 0.5 8 5)" fill="#FF98D6"/>
<rect width="2" height="13" transform="matrix(-4.37114e-08 1 1 4.37114e-08 6 15)" fill="#FF98D6"/>
<rect width="2" height="13" transform="matrix(-4.37114e-08 1 1 4.37114e-08 20 15)" fill="#FF98D6"/>
</g>
</svg>
