<svg width="140" height="140" viewBox="0 0 140 140" fill="none" xmlns="http://www.w3.org/2000/svg">
<rect x="77" y="107" width="14" height="33" rx="7" fill="#FFBFA3"/>
<rect x="52" y="107" width="14" height="33" rx="7" fill="#FFBFA3"/>
<path fill-rule="evenodd" clip-rule="evenodd" d="M71.5978 1C65.3498 1 59.7323 3.65338 55.8485 7.8761C52.5704 5.83859 48.6851 4.65922 44.5196 4.65922C32.7982 4.65922 23.2961 13.9975 23.2961 25.5168C23.2961 25.5764 23.2963 25.636 23.2969 25.6956C14.0693 27.8477 7.19553 36.1253 7.19553 46.0084C7.19553 49.1413 7.88626 52.1129 9.12373 54.7791C6.53331 58.2544 5 62.5641 5 67.2318C5 71.8122 6.47643 76.0477 8.97933 79.4885C7.83265 82.1175 7.19553 85.0277 7.19553 88.0894C7.19553 98.1481 14.0724 106.573 23.3032 108.76C23.5973 120.027 32.9836 129.073 44.5196 129.073C48.8696 129.073 52.914 127.786 56.2805 125.58C60.1431 129.537 65.5777 132 71.5978 132C77.5845 132 82.9923 129.564 86.8507 125.645C90.1394 127.812 94.0775 129.073 98.3101 129.073C109.829 129.073 119.168 119.734 119.168 108.215L119.167 108.105C127.268 105.192 133.073 97.3303 133.073 88.0894C133.073 85.0277 132.436 82.1175 131.289 79.4885C133.792 76.0477 135.268 71.8122 135.268 67.2318C135.268 62.5641 133.735 58.2544 131.144 54.7791C132.382 52.1129 133.073 49.1413 133.073 46.0084C133.073 36.921 127.261 29.191 119.152 26.3321C119.162 26.0616 119.168 25.7898 119.168 25.5168C119.168 13.9975 109.829 4.65922 98.3101 4.65922C94.262 4.65922 90.4833 5.81242 87.2845 7.80823C83.4031 3.62497 77.8124 1 71.5978 1Z" fill="white"/>
<path d="M60.7161 42.9257V42.9257C66.6114 47.6951 75.0164 47.7716 80.9975 43.1102V43.1102V43.1102C81.7936 50.6513 87.6828 56.6485 95.2082 57.5817V57.5817V57.5817C90.4388 63.477 90.3623 71.882 95.0237 77.8631V77.8631V77.8631C87.4826 78.6592 81.4854 84.5484 80.5522 92.0738V92.0738V92.0738C74.6568 87.3044 66.2519 87.2279 60.2708 91.8893V91.8893V91.8893C59.4746 84.3482 53.5855 78.351 46.0601 77.4178V77.4178V77.4178C50.8295 71.5224 50.906 63.1175 46.2446 57.1364V57.1364V57.1364C53.7857 56.3402 59.7829 50.4511 60.7161 42.9257V42.9257Z" fill="#FFBFA3"/>
<rect x="79.5171" y="60" width="7.46411" height="13.4354" rx="3.73206" fill="black"/>
<rect x="55.1343" y="60" width="7.46411" height="13.4354" rx="3.73206" fill="black"/>
<path d="M73.2971 69.4546C74.8086 69.4546 76.0339 70.6799 76.0339 72.1914V72.1914C76.0339 73.7029 74.8086 74.9283 73.297 74.9283L69.3162 74.9283C67.8047 74.9283 66.5793 73.7029 66.5793 72.1914V72.1914C66.5793 70.6799 67.8047 69.4546 69.3162 69.4546L73.2971 69.4546Z" fill="black"/>
<rect x="105" y="55" width="16" height="23" rx="8" fill="#FFBFA3"/>
<rect x="20" y="55" width="16" height="23" rx="8" fill="#FFBFA3"/>
</svg>
