<svg width="112" height="35" viewBox="0 0 112 35" fill="none" xmlns="http://www.w3.org/2000/svg">
<path d="M11.2146 6.96357C12.2203 4.44914 15.7797 4.44914 16.7854 6.96357L28 35H0L11.2146 6.96357Z" fill="#C5BDB6"/>
<mask id="mask0_188_2079" style="mask-type:alpha" maskUnits="userSpaceOnUse" x="0" y="5" width="28" height="30">
<path d="M11.2146 6.96357C12.2203 4.44914 15.7797 4.44914 16.7854 6.96357L28 35H0L11.2146 6.96357Z" fill="#EDE7E1"/>
</mask>
<g mask="url(#mask0_188_2079)">
<path d="M14 0L28 35H14V0Z" fill="#AFA49B"/>
</g>
<path d="M39.2146 6.96357C40.2203 4.44914 43.7797 4.44914 44.7854 6.96357L56 35H28L39.2146 6.96357Z" fill="#C5BDB6"/>
<mask id="mask1_188_2079" style="mask-type:alpha" maskUnits="userSpaceOnUse" x="28" y="5" width="28" height="30">
<path d="M39.2146 6.96357C40.2203 4.44914 43.7797 4.44914 44.7854 6.96357L56 35H28L39.2146 6.96357Z" fill="#EDE7E1"/>
</mask>
<g mask="url(#mask1_188_2079)">
<path d="M42 0L56 35H42V0Z" fill="#AFA49B"/>
</g>
<path d="M67.2146 6.96357C68.2203 4.44914 71.7797 4.44914 72.7854 6.96357L84 35H56L67.2146 6.96357Z" fill="#C5BDB6"/>
<mask id="mask2_188_2079" style="mask-type:alpha" maskUnits="userSpaceOnUse" x="56" y="5" width="28" height="30">
<path d="M67.2146 6.96357C68.2203 4.44914 71.7797 4.44914 72.7854 6.96357L84 35H56L67.2146 6.96357Z" fill="#EDE7E1"/>
</mask>
<g mask="url(#mask2_188_2079)">
<path d="M70 0L84 35H70V0Z" fill="#AFA49B"/>
</g>
<path d="M95.2146 6.96357C96.2203 4.44914 99.7797 4.44914 100.785 6.96357L112 35H84L95.2146 6.96357Z" fill="#C5BDB6"/>
<mask id="mask3_188_2079" style="mask-type:alpha" maskUnits="userSpaceOnUse" x="84" y="5" width="28" height="30">
<path d="M95.2146 6.96357C96.2203 4.44914 99.7797 4.44914 100.785 6.96357L112 35H84L95.2146 6.96357Z" fill="#EDE7E1"/>
</mask>
<g mask="url(#mask3_188_2079)">
<path d="M98 0L112 35H98V0Z" fill="#AFA49B"/>
</g>
</svg>
