<svg width="106" height="106" viewBox="0 0 106 106" fill="none" xmlns="http://www.w3.org/2000/svg">
<mask id="path-1-outside-1_188_2038" maskUnits="userSpaceOnUse" x="1" y="0.255859" width="104" height="105" fill="black">
<rect fill="white" x="1" y="0.255859" width="104" height="105"/>
<path fill-rule="evenodd" clip-rule="evenodd" d="M39.1792 18.1407C37.9333 14.1169 40.1852 9.84502 44.209 8.59914C48.2328 7.35326 52.5046 9.60518 53.7505 13.6289L55.7912 20.2198L63.7087 12.3023C68.2938 7.71721 75.7277 7.7172 80.3127 12.3023C84.4477 16.4372 84.8536 22.889 81.5306 27.4788C91.1751 31.2805 98 40.6815 98 51.6765V71.6765C98 86.0359 86.3594 97.6765 72 97.6765C64.5019 97.6765 57.7452 94.5026 53 89.4249C48.2548 94.5026 41.4981 97.6765 34 97.6765C19.6406 97.6765 8 86.0359 8 71.6765V51.6765C8 37.3171 19.6406 25.6765 34 25.6765C36.7506 25.6765 39.4015 26.1037 41.8899 26.8952L39.1792 18.1407Z"/>
</mask>
<path fill-rule="evenodd" clip-rule="evenodd" d="M39.1792 18.1407C37.9333 14.1169 40.1852 9.84502 44.209 8.59914C48.2328 7.35326 52.5046 9.60518 53.7505 13.6289L55.7912 20.2198L63.7087 12.3023C68.2938 7.71721 75.7277 7.7172 80.3127 12.3023C84.4477 16.4372 84.8536 22.889 81.5306 27.4788C91.1751 31.2805 98 40.6815 98 51.6765V71.6765C98 86.0359 86.3594 97.6765 72 97.6765C64.5019 97.6765 57.7452 94.5026 53 89.4249C48.2548 94.5026 41.4981 97.6765 34 97.6765C19.6406 97.6765 8 86.0359 8 71.6765V51.6765C8 37.3171 19.6406 25.6765 34 25.6765C36.7506 25.6765 39.4015 26.1037 41.8899 26.8952L39.1792 18.1407Z" fill="#FF5165"/>
<path d="M39.1792 18.1407L32.4924 20.2111V20.2111L39.1792 18.1407ZM53.7505 13.6289L60.4373 11.5585V11.5585L53.7505 13.6289ZM55.7912 20.2198L49.1044 22.2902L52.5364 33.3741L60.741 25.1695L55.7912 20.2198ZM63.7087 12.3023L68.6585 17.252V17.252L63.7087 12.3023ZM80.3127 12.3023L75.363 17.252V17.252L80.3127 12.3023ZM81.5306 27.4788L75.8606 23.3738L70.5694 30.6823L78.9636 33.9912L81.5306 27.4788ZM53 89.4249L58.1144 84.6454L53 79.1727L47.8856 84.6454L53 89.4249ZM41.8899 26.8952L39.7679 33.5659L52.5413 37.6291L48.5767 24.8248L41.8899 26.8952ZM42.1386 1.91234C34.4218 4.30169 30.1031 12.4943 32.4924 20.2111L45.866 16.0702C45.7636 15.7395 45.9487 15.3883 46.2794 15.2859L42.1386 1.91234ZM60.4373 11.5585C58.048 3.84172 49.8553 -0.477009 42.1386 1.91234L46.2794 15.2859C46.6102 15.1835 46.9613 15.3686 47.0637 15.6994L60.4373 11.5585ZM62.478 18.1493L60.4373 11.5585L47.0637 15.6994L49.1044 22.2902L62.478 18.1493ZM58.759 7.35253L50.8415 15.27L60.741 25.1695L68.6585 17.252L58.759 7.35253ZM85.2625 7.35252C77.9437 0.0337763 66.0777 0.0337992 58.759 7.35253L68.6585 17.252C70.5099 15.4006 73.5116 15.4006 75.363 17.252L85.2625 7.35252ZM87.2006 31.5838C92.5082 24.2528 91.8674 13.9574 85.2625 7.35252L75.363 17.252C77.0279 18.9169 77.199 21.5252 75.8606 23.3738L87.2006 31.5838ZM105 51.6765C105 37.7103 96.3265 25.7869 84.0976 20.9665L78.9636 33.9912C86.0237 36.7741 91 43.6527 91 51.6765H105ZM105 71.6765V51.6765H91V71.6765H105ZM72 104.677C90.2254 104.677 105 89.9019 105 71.6765H91C91 82.17 82.4934 90.6765 72 90.6765V104.677ZM47.8856 94.2044C53.8992 100.639 62.4836 104.677 72 104.677V90.6765C66.5203 90.6765 61.5912 88.3659 58.1144 84.6454L47.8856 94.2044ZM34 104.677C43.5164 104.677 52.1008 100.639 58.1144 94.2044L47.8856 84.6454C44.4088 88.3659 39.4797 90.6765 34 90.6765V104.677ZM1 71.6765C1 89.9019 15.7746 104.677 34 104.677V90.6765C23.5066 90.6765 15 82.1699 15 71.6765H1ZM1 51.6765V71.6765H15V51.6765H1ZM34 18.6765C15.7746 18.6765 1 33.4511 1 51.6765H15C15 41.1831 23.5066 32.6765 34 32.6765V18.6765ZM44.0118 20.2246C40.8454 19.2174 37.4791 18.6765 34 18.6765V32.6765C36.0221 32.6765 37.9576 32.99 39.7679 33.5659L44.0118 20.2246ZM32.4924 20.2111L35.2031 28.9657L48.5767 24.8248L45.866 16.0702L32.4924 20.2111Z" fill="white" mask="url(#path-1-outside-1_188_2038)"/>
<rect x="36.9233" y="10.8545" width="15.2538" height="33" rx="7.62691" transform="rotate(-17.2041 36.9233 10.8545)" fill="#E9A982"/>
<rect x="72.0107" y="4" width="23.4816" height="36.7848" rx="11.7408" transform="rotate(45 72.0107 4)" fill="#00D98B"/>
<path fill-rule="evenodd" clip-rule="evenodd" d="M34 25.6763C19.6406 25.6763 8 37.3169 8 51.6763V71.6763C8 86.0357 19.6406 97.6763 34 97.6763C41.4981 97.6763 48.2548 94.5023 53 89.4246C57.7452 94.5023 64.5019 97.6763 72 97.6763C86.3594 97.6763 98 86.0357 98 71.6763V51.6763C98 37.3169 86.3594 25.6763 72 25.6763C64.5019 25.6763 57.7452 28.8502 53 33.9279C48.2548 28.8502 41.4981 25.6763 34 25.6763Z" fill="#FF5165"/>
</svg>
