<svg width="96" height="96" viewBox="0 0 96 96" fill="none" xmlns="http://www.w3.org/2000/svg">
<mask id="path-1-outside-1_188_2040" maskUnits="userSpaceOnUse" x="0.800049" y="-0.199219" width="95" height="95" fill="black">
<rect fill="white" x="0.800049" y="-0.199219" width="95" height="95"/>
<path fill-rule="evenodd" clip-rule="evenodd" d="M18.3403 17.8306C15.5141 20.6568 15.5141 25.2389 18.3403 28.0651L19.7514 29.4762L17.9117 28.9833C14.0511 27.9488 10.0829 30.2399 9.04843 34.1005C8.01399 37.9611 10.305 41.9293 14.1657 42.9638L35.7083 48.7361C33.2426 57.6752 37.2491 67.8024 46.4947 72.117L77.8497 86.7494C84.0588 89.6469 90.4985 83.2072 87.6009 76.9981L72.9686 45.6431C68.6821 36.4577 58.6583 32.4434 49.7623 34.8095L43.9631 13.1664C42.9286 9.30578 38.9604 7.01472 35.0998 8.04917C31.2392 9.08361 28.9481 13.0518 29.9825 16.9125L30.8339 20.0898L28.5747 17.8306C25.7486 15.0045 21.1664 15.0045 18.3403 17.8306Z"/>
</mask>
<path fill-rule="evenodd" clip-rule="evenodd" d="M18.3403 17.8306C15.5141 20.6568 15.5141 25.2389 18.3403 28.0651L19.7514 29.4762L17.9117 28.9833C14.0511 27.9488 10.0829 30.2399 9.04843 34.1005C8.01399 37.9611 10.305 41.9293 14.1657 42.9638L35.7083 48.7361C33.2426 57.6752 37.2491 67.8024 46.4947 72.117L77.8497 86.7494C84.0588 89.6469 90.4985 83.2072 87.6009 76.9981L72.9686 45.6431C68.6821 36.4577 58.6583 32.4434 49.7623 34.8095L43.9631 13.1664C42.9286 9.30578 38.9604 7.01472 35.0998 8.04917C31.2392 9.08361 28.9481 13.0518 29.9825 16.9125L30.8339 20.0898L28.5747 17.8306C25.7486 15.0045 21.1664 15.0045 18.3403 17.8306Z" fill="#FF7629"/>
<path d="M18.3403 28.0651L13.3905 33.0148L13.3905 33.0148L18.3403 28.0651ZM19.7514 29.4762L17.9397 36.2377L43.1739 42.9992L24.7012 24.5265L19.7514 29.4762ZM17.9117 28.9833L16.1 35.7448L17.9117 28.9833ZM9.04843 34.1005L2.28695 32.2888L9.04843 34.1005ZM14.1657 42.9638L15.9774 36.2023H15.9774L14.1657 42.9638ZM35.7083 48.7361L42.4563 50.5975L44.3314 43.7997L37.5201 41.9746L35.7083 48.7361ZM46.4947 72.117L49.4549 65.7737L46.4947 72.117ZM77.8497 86.7494L74.8895 93.0926L77.8497 86.7494ZM87.6009 76.9981L93.9442 74.0379L87.6009 76.9981ZM72.9686 45.6431L66.6253 48.6033L72.9686 45.6431ZM49.7623 34.8095L43.0008 36.6212L44.8092 43.3702L51.5616 41.5743L49.7623 34.8095ZM43.9631 13.1664L37.2016 14.9781L43.9631 13.1664ZM35.0998 8.04917L36.9115 14.8106L36.9115 14.8106L35.0998 8.04917ZM29.9825 16.9125L23.2211 18.7242L23.2211 18.7242L29.9825 16.9125ZM30.8339 20.0898L25.8842 25.0396L44.3569 43.5123L37.5954 18.2781L30.8339 20.0898ZM28.5747 17.8306L33.5245 12.8809V12.8809L28.5747 17.8306ZM23.29 23.1153C23.1975 23.0228 23.1975 22.8729 23.29 22.7804L13.3905 12.8809C7.83069 18.4407 7.8307 27.455 13.3905 33.0148L23.29 23.1153ZM24.7012 24.5265L23.29 23.1153L13.3905 33.0148L14.8017 34.426L24.7012 24.5265ZM16.1 35.7448L17.9397 36.2377L21.5632 22.7148L19.7235 22.2218L16.1 35.7448ZM15.8099 35.9122C15.8438 35.7859 15.9736 35.7109 16.1 35.7448L19.7235 22.2218C12.1286 20.1868 4.32199 24.6939 2.28695 32.2888L15.8099 35.9122ZM15.9774 36.2023C15.851 36.1685 15.7761 36.0386 15.8099 35.9122L2.28695 32.2888C0.251913 39.8836 4.75905 47.6902 12.3539 49.7253L15.9774 36.2023ZM37.5201 41.9746L15.9774 36.2023L12.3539 49.7253L33.8966 55.4976L37.5201 41.9746ZM28.9604 46.8748C25.6413 58.9071 31.0098 72.6155 43.5345 78.4603L49.4549 65.7737C43.4884 62.9894 40.8438 56.4434 42.4563 50.5975L28.9604 46.8748ZM43.5345 78.4603L74.8895 93.0926L80.8099 80.4061L49.4549 65.7737L43.5345 78.4603ZM74.8895 93.0926C87.0226 98.7548 99.6063 86.171 93.9442 74.0379L81.2576 79.9583C81.3085 80.0673 81.3148 80.1222 81.3155 80.1288C81.3166 80.1377 81.3161 80.1396 81.3153 80.1439C81.3117 80.1613 81.2859 80.2437 81.1906 80.339C81.0952 80.4343 81.0128 80.4601 80.9955 80.4637C80.9912 80.4646 80.9892 80.465 80.9804 80.464C80.9737 80.4632 80.9189 80.4569 80.8099 80.4061L74.8895 93.0926ZM93.9442 74.0379L79.3119 42.6829L66.6253 48.6033L81.2576 79.9583L93.9442 74.0379ZM79.3119 42.6829C73.5051 30.2398 59.9358 24.8602 47.963 28.0447L51.5616 41.5743C57.3809 40.0265 63.859 42.6756 66.6253 48.6033L79.3119 42.6829ZM37.2016 14.9781L43.0008 36.6212L56.5238 32.9977L50.7245 11.3547L37.2016 14.9781ZM36.9115 14.8106C37.0378 14.7768 37.1677 14.8518 37.2016 14.9781L50.7245 11.3547C48.6895 3.75978 40.8829 -0.747356 33.288 1.28769L36.9115 14.8106ZM36.744 15.1007C36.7102 14.9744 36.7852 14.8445 36.9115 14.8106L33.288 1.28769C25.6932 3.32272 21.186 11.1293 23.2211 18.7242L36.744 15.1007ZM37.5954 18.2781L36.744 15.1007L23.2211 18.7242L24.0725 21.9016L37.5954 18.2781ZM23.625 22.7804L25.8842 25.0396L35.7837 15.1401L33.5245 12.8809L23.625 22.7804ZM23.29 22.7804C23.3825 22.6879 23.5325 22.6879 23.625 22.7804L33.5245 12.8809C27.9646 7.32106 18.9504 7.32105 13.3905 12.8809L23.29 22.7804Z" fill="white" mask="url(#path-1-outside-1_188_2040)"/>
<path fill-rule="evenodd" clip-rule="evenodd" d="M18.3403 28.065C15.5142 25.2389 15.5142 20.6567 18.3403 17.8306C21.1665 15.0044 25.7486 15.0044 28.5748 17.8306L30.834 20.0898L29.9826 16.9124C28.9481 13.0518 31.2392 9.08356 35.0998 8.04911C38.9604 7.01466 42.9287 9.30572 43.9631 13.1663L50.5441 37.727L52.2275 38.1781C56.0882 39.2126 58.3792 43.1808 57.3448 47.0414C57.0028 48.3177 56.3402 49.4224 55.4669 50.2922C55.1262 51.3504 54.5358 52.3458 53.6957 53.1859C52.834 54.0476 51.8091 54.6465 50.7205 54.9828C49.9561 55.6019 49.0523 56.0744 48.0408 56.3454C44.1802 57.3798 40.2119 55.0888 39.1775 51.2282L38.7264 49.5448L14.1657 42.9637C10.3051 41.9293 8.01403 37.9611 9.04848 34.1004C10.0829 30.2398 14.0512 27.9488 17.9118 28.9832L19.7515 29.4762L18.3403 28.065Z" fill="#00D98B"/>
<path d="M87.6009 76.9976L72.9686 45.6426C67.123 33.1163 50.6078 30.2067 40.8333 39.9812C31.0588 49.7556 33.9684 66.2709 46.4948 72.1165L77.8497 86.7488C84.0588 89.6464 90.4985 83.2067 87.6009 76.9976Z" fill="#FF7629"/>
<mask id="mask0_188_2040" style="mask-type:alpha" maskUnits="userSpaceOnUse" x="34" y="34" width="55" height="54">
<path d="M87.6009 76.9976L72.9686 45.6426C67.123 33.1163 50.6078 30.2067 40.8333 39.9812C31.0588 49.7556 33.9684 66.2709 46.4948 72.1165L77.8497 86.7488C84.0588 89.6464 90.4985 83.2067 87.6009 76.9976Z" fill="white"/>
</mask>
<g mask="url(#mask0_188_2040)">
<rect x="30" y="73.6274" width="32" height="11" rx="5.5" transform="rotate(-45 30 73.6274)" fill="#FA5A00"/>
<rect x="67" y="68.6274" width="32" height="11" rx="5.5" transform="rotate(-45 67 68.6274)" fill="#FA5A00"/>
</g>
</svg>
