<svg width="106" height="106" viewBox="0 0 106 106" fill="none" xmlns="http://www.w3.org/2000/svg">
<circle cx="53" cy="53" r="48.5" fill="#FFE924" stroke="white" stroke-width="7"/>
<circle cx="52.9996" cy="53.0001" r="27.439" fill="#FED119"/>
<path d="M50.801 36.7121C51.988 35.4325 54.0126 35.4325 55.1997 36.7121L60.9571 42.9184L68.656 46.3991C70.2668 47.1274 70.9019 49.0836 70.0259 50.6192L65.8747 57.8959L64.9075 66.2277C64.7053 67.97 63.0579 69.1679 61.3381 68.8233L53.0003 67.1526L44.6625 68.8233C42.9427 69.1679 41.2954 67.97 41.0931 66.2277L40.1259 57.8959L35.9748 50.6192C35.0988 49.0836 35.7338 47.1274 37.3447 46.3991L45.0435 42.9184L50.801 36.7121Z" fill="#FFE924"/>
</svg>
