<svg width="106" height="102" viewBox="0 0 106 102" fill="none" xmlns="http://www.w3.org/2000/svg">
<path d="M29.8301 5.31842L29.8299 5.31846C24.2431 6.32945 19.0534 8.95836 14.8281 12.8855C10.6047 16.8109 7.50889 21.8793 5.85797 27.5164C4.20726 33.1529 4.05877 39.1591 5.42727 44.8771C6.79591 50.5956 9.63423 55.8249 13.6529 59.9761C13.6697 59.9934 13.6867 60.0106 13.7039 60.0277L46.5972 92.6248C50.3197 96.3138 56.3265 96.2914 60.0215 92.5747L92.1278 60.2788L92.2766 60.144C92.3564 60.0715 92.4329 59.9955 92.5057 59.916L93.3154 59.0326C93.3314 59.0151 93.3473 58.9974 93.3629 58.9796C97.0985 54.7335 99.6661 49.5145 100.816 43.8822C101.967 38.2504 101.662 32.3936 99.9303 26.9256C98.1988 21.4569 95.0987 16.5617 90.9341 12.771C86.7678 8.97885 81.6912 6.43465 76.235 5.43449C76.2038 5.42877 76.1725 5.42349 76.1412 5.41862L75.0347 5.24671C75.0155 5.24373 74.9963 5.24091 74.9771 5.23825C70.6476 4.63923 66.2489 5.02793 62.0785 6.37498C58.8335 7.42311 55.7909 9.03059 53.0689 11.1195C50.1706 8.86834 46.9045 7.16654 43.4155 6.10832C39.0031 4.77006 34.3589 4.49922 29.8301 5.31842Z" fill="#FF5165" stroke="white" stroke-width="7" stroke-linecap="round" stroke-linejoin="round"/>
</svg>
