<svg width="102" height="102" viewBox="0 0 102 102" fill="none" xmlns="http://www.w3.org/2000/svg">
<path d="M58.9891 6.52311C54.2348 3.03288 47.7652 3.03288 43.011 6.52311L35.01 12.3968L25.1992 13.901C19.3695 14.7948 14.7948 19.3695 13.901 25.1992L12.3968 35.01L6.52311 43.0109C3.03288 47.7652 3.03287 54.2348 6.52311 58.9891L12.3968 66.99L13.901 76.8008C14.7948 82.6305 19.3695 87.2052 25.1992 88.099L35.01 89.6032L43.0109 95.4769C47.7652 98.9671 54.2348 98.9671 58.9891 95.4769L66.99 89.6032L76.8008 88.099C82.6305 87.2052 87.2052 82.6305 88.099 76.8008L89.6032 66.99L95.4769 58.9891C98.9671 54.2348 98.9671 47.7652 95.4769 43.0109L89.6032 35.01L88.099 25.1992C87.2052 19.3695 82.6305 14.7948 76.8008 13.901L66.99 12.3968L58.9891 6.52311Z" fill="#FED119" stroke="white" stroke-width="7"/>
<circle cx="51" cy="51" r="27" fill="#FFE924"/>
</svg>
